<?xml version="1.0" encoding="utf-8"?>
<!-- Generator: Adobe Illustrator 26.3.1, SVG Export Plug-In . SVG Version: 6.00 Build 0)  -->
<svg version="1.1" id="Layer_1" xmlns="http://www.w3.org/2000/svg" xmlns:xlink="http://www.w3.org/1999/xlink" x="0px" y="0px"
	 viewBox="0 0 810.37 295.24" style="enable-background:new 0 0 810.37 295.24;" xml:space="preserve">
<style type="text/css">
	.st0{clip-path:url(#SVGID_00000120538380144817310820000012029926126991930765_);fill:#FFFFFF;}
	.st1{clip-path:url(#SVGID_00000021105470949762166260000007178246683519396236_);fill:#FFFFFF;}
	.st2{clip-path:url(#SVGID_00000170987165380163815120000000342984206804895119_);fill:#FFFFFF;}
	.st3{clip-path:url(#SVGID_00000026875631776829311430000002286320224428793494_);fill:#FFFFFF;}
	.st4{clip-path:url(#SVGID_00000181774776287873339530000001670385404191416960_);fill:#FFFFFF;}
	.st5{clip-path:url(#SVGID_00000125562937760400408790000016908336278184654978_);fill:#FFFFFF;}
	.st6{clip-path:url(#SVGID_00000111903556778950823770000017995027756134760874_);fill:#FFFFFF;}
	.st7{clip-path:url(#SVGID_00000108274458699529504610000008402268698107267762_);fill:#FFFFFF;}
	.st8{clip-path:url(#SVGID_00000090275051396142483910000015880704016353296047_);fill:#FFFFFF;}
	.st9{clip-path:url(#SVGID_00000036225910833722544550000013333961503368007055_);fill:#FFFFFF;}
	.st10{clip-path:url(#SVGID_00000150820399021489546930000005196603026895207589_);fill:#FFFFFF;}
	.st11{clip-path:url(#SVGID_00000017488093119754245530000000427693891877862568_);fill:#FFFFFF;}
	.st12{clip-path:url(#SVGID_00000091012424897998521970000010344482548628861356_);fill:#FFFFFF;}
	.st13{clip-path:url(#SVGID_00000051373677877881126760000000208004588217408896_);fill:#FFFFFF;}
	.st14{clip-path:url(#SVGID_00000153667278039506716910000006999077706223469699_);fill:#FFFFFF;}
	.st15{clip-path:url(#SVGID_00000065074581571613777550000013988869674215709884_);fill:#FFFFFF;}
	.st16{clip-path:url(#SVGID_00000020396785015475172540000005038210119664242330_);fill:#FFFFFF;}
	.st17{clip-path:url(#SVGID_00000004517310729220720640000000667067775576987827_);fill:#FFFFFF;}
	.st18{clip-path:url(#SVGID_00000152952505187957766760000006224429984856381352_);fill:#FFFFFF;}
	.st19{clip-path:url(#SVGID_00000047018836919633732960000017940939789397114794_);fill:#FFFFFF;}
	.st20{clip-path:url(#SVGID_00000121268111891108451980000017435718549622610356_);fill:#FFFFFF;}
	.st21{clip-path:url(#SVGID_00000124149771436316406670000002636812362562704052_);fill:#FFFFFF;}
	.st22{clip-path:url(#SVGID_00000074405541833775239180000001443844512162248106_);fill:#FFFFFF;}
	.st23{clip-path:url(#SVGID_00000093855503661797939050000006710012210912075916_);fill:#FFFFFF;}
	.st24{clip-path:url(#SVGID_00000053539423318456029380000010727134029946465436_);fill:#FFFFFF;}
	.st25{clip-path:url(#SVGID_00000095315761758745261470000011521426079407985574_);fill:#FFFFFF;}
	.st26{clip-path:url(#SVGID_00000175310284285473081650000009499498379168450720_);fill:#FFFFFF;}
	.st27{clip-path:url(#SVGID_00000058575958665565711260000014008337270290321854_);fill:#FFFFFF;}
	.st28{clip-path:url(#SVGID_00000127013613416486887840000003577816425066662306_);fill:#FFFFFF;}
	.st29{clip-path:url(#SVGID_00000128470555424530029930000003908457243638571909_);fill:#FFFFFF;}
	.st30{clip-path:url(#SVGID_00000001660241300562323480000006397672278413014162_);fill:#FFFFFF;}
	.st31{clip-path:url(#SVGID_00000078020786320354229560000006588991772789061516_);fill:#FFFFFF;}
	.st32{clip-path:url(#SVGID_00000150825299608294640920000017486863034724259972_);fill:#FFFFFF;}
	.st33{clip-path:url(#SVGID_00000019656121818308315210000006665450184576163500_);fill:#FFFFFF;}
	.st34{clip-path:url(#SVGID_00000060731619132870651180000009925330748731110051_);fill:#FFFFFF;}
	.st35{clip-path:url(#SVGID_00000091007631028518434350000003733032372398431651_);fill:#FFFFFF;}
	.st36{clip-path:url(#SVGID_00000047759105033076824120000013706334582316624310_);fill:#FFFFFF;}
	.st37{clip-path:url(#SVGID_00000101089993570354716300000011451840717014764962_);fill:#FFFFFF;}
	.st38{fill-rule:evenodd;clip-rule:evenodd;fill:#FFFFFF;}
</style>
<g>
	<defs>
		<path id="SVGID_1_" d="M508.76,101.31h-13.14v9.16h38.56v-9.16h-14.24V43.85h14.14v-9.18h-26.74L477.5,95.34l-30.4-60.68h-26.74
			v9.18h14.14v57.46h-14.14v9.16h38.01v-9.16h-13.14V64.18c0-3.09-0.34-7.55-1-13.38l29.96,60.45h5.75l30.16-60.9
			c-0.88,5.69-1.33,10.29-1.33,13.82V101.31z"/>
	</defs>
	<clipPath id="SVGID_00000057859281953073734700000018284510795176047758_">
		<use xlink:href="#SVGID_1_"  style="overflow:visible;"/>
	</clipPath>
	
		<rect x="419.36" y="33.66" style="clip-path:url(#SVGID_00000057859281953073734700000018284510795176047758_);fill:#FFFFFF;" width="115.82" height="78.59"/>
</g>
<g>
	<defs>
		<path id="SVGID_00000027594354885504149370000007438874071582110358_" d="M687.6,78.09l12.47-0.56
			c6.49-0.94,11.51-3.34,15.08-7.12c3.59-3.78,5.37-8.44,5.37-13.97c0-6.72-2.51-12.01-7.52-15.91c-5.01-3.91-11.84-5.87-20.46-5.87
			h-43.98v9.17h14.28v57.57h-14.28v9.06h39.57v-9.15h-13.93V78.09H687.6z M674.21,43.84h18.69c4.78,0,8.69,1.13,11.78,3.38
			c3.05,2.23,4.57,5.32,4.57,9.23c0,4.03-1.54,7.24-4.64,9.56c-3.09,2.32-6.98,3.47-11.7,3.47h-18.69V43.84z"/>
	</defs>
	<clipPath id="SVGID_00000083802253855272346350000011332180182089990843_">
		<use xlink:href="#SVGID_00000027594354885504149370000007438874071582110358_"  style="overflow:visible;"/>
	</clipPath>
	
		<rect x="647.57" y="33.67" style="clip-path:url(#SVGID_00000083802253855272346350000011332180182089990843_);fill:#FFFFFF;" width="73.96" height="77.8"/>
</g>
<g>
	<defs>
		<polygon id="SVGID_00000106124387245159251300000008584978215717646271_" points="615.44,101.31 615.44,110.48 640.63,110.48 
			640.63,101.31 626.38,101.31 626.38,43.85 626.51,43.85 626.51,34.67 615.55,34.67 567.37,90.7 567.37,43.85 567.37,34.67 
			542.95,34.67 542.95,43.85 556.76,43.85 556.76,111.14 562.4,111.25 615.55,50.81 615.55,101.31 		"/>
	</defs>
	<clipPath id="SVGID_00000113331006372850405740000017928204586162553744_">
		<use xlink:href="#SVGID_00000106124387245159251300000008584978215717646271_"  style="overflow:visible;"/>
	</clipPath>
	
		<rect x="541.95" y="33.67" style="clip-path:url(#SVGID_00000113331006372850405740000017928204586162553744_);fill:#FFFFFF;" width="99.68" height="78.58"/>
</g>
<g>
	<defs>
		<path id="SVGID_00000080910299483399254400000016538383273879492779_" d="M501.94,176.34c0-7.37-1.72-13.97-5.19-19.81
			c-3.44-5.84-8.2-10.39-14.26-13.64c-6.06-3.25-12.77-4.9-20.12-4.9c-7.41,0-14.16,1.65-20.22,4.9
			c-6.06,3.25-10.8,7.78-14.26,13.58c-3.44,5.79-5.18,12.44-5.18,19.87c0,7.37,1.74,13.97,5.18,19.77
			c3.46,5.79,8.2,10.31,14.26,13.58c6.06,3.23,12.81,4.88,20.22,4.88c7.35,0,14.07-1.64,20.12-4.88c6.06-3.27,10.82-7.8,14.26-13.58
			C500.21,190.31,501.94,183.71,501.94,176.34 M486.5,191.32c-2.32,4.41-5.61,7.86-9.79,10.31c-4.2,2.48-8.98,3.71-14.34,3.71
			c-5.48,0-10.33-1.22-14.53-3.66c-4.2-2.44-7.45-5.86-9.75-10.26c-2.28-4.41-3.44-9.42-3.44-15.09c0-5.59,1.16-10.6,3.44-15.03
			c2.3-4.45,5.57-7.9,9.81-10.37c4.24-2.46,9.08-3.71,14.47-3.71c5.36,0,10.14,1.26,14.34,3.71c4.18,2.48,7.47,5.92,9.79,10.31
			c2.36,4.39,3.5,9.42,3.5,15.09C490,181.93,488.86,186.93,486.5,191.32"/>
	</defs>
	<clipPath id="SVGID_00000118379175479163403770000006150292066410453142_">
		<use xlink:href="#SVGID_00000080910299483399254400000016538383273879492779_"  style="overflow:visible;"/>
	</clipPath>
	
		<rect x="421.7" y="136.99" style="clip-path:url(#SVGID_00000118379175479163403770000006150292066410453142_);fill:#FFFFFF;" width="81.23" height="78.58"/>
</g>
<g>
	<defs>
		<path id="SVGID_00000085222889646017655390000017596357242531473584_" d="M674.59,214.58c7.35,0,14.07-1.65,20.12-4.88
			c6.06-3.27,10.82-7.8,14.26-13.58c3.46-5.81,5.18-12.4,5.18-19.77c0-7.37-1.72-13.97-5.18-19.81c-3.44-5.84-8.2-10.39-14.26-13.64
			c-6.06-3.25-12.77-4.9-20.12-4.9c-7.41,0-14.16,1.65-20.22,4.9c-6.06,3.25-10.8,7.78-14.26,13.58
			c-3.44,5.79-5.19,12.44-5.19,19.87c0,7.37,1.74,13.97,5.19,19.77c3.46,5.79,8.2,10.31,14.26,13.58
			C660.42,212.93,667.18,214.58,674.59,214.58 M646.86,176.34c0-5.59,1.14-10.6,3.44-15.03c2.3-4.45,5.57-7.89,9.79-10.37
			c4.24-2.46,9.09-3.71,14.49-3.71c5.34,0,10.14,1.26,14.32,3.71c4.2,2.48,7.49,5.92,9.81,10.31c2.36,4.39,3.5,9.42,3.5,15.09
			c0,5.59-1.14,10.58-3.5,14.98c-2.32,4.41-5.61,7.86-9.81,10.31c-4.18,2.48-8.98,3.71-14.32,3.71c-5.49,0-10.33-1.22-14.55-3.66
			c-4.18-2.44-7.43-5.86-9.73-10.25C648,187.02,646.86,182.01,646.86,176.34"/>
	</defs>
	<clipPath id="SVGID_00000101062754258518623840000008688995278280032938_">
		<use xlink:href="#SVGID_00000085222889646017655390000017596357242531473584_"  style="overflow:visible;"/>
	</clipPath>
	
		<rect x="633.92" y="136.99" style="clip-path:url(#SVGID_00000101062754258518623840000008688995278280032938_);fill:#FFFFFF;" width="81.23" height="78.58"/>
</g>
<g>
	<defs>
		<path id="SVGID_00000060031117215609480930000000193585391337269426_" d="M602.22,153.93c-0.89,5.73-1.34,10.37-1.34,13.94v37.44
			h-13.27v9.24h38.9v-9.24h-14.38v-57.94h14.26v-9.26h-26.96l-30.08,61.18l-30.63-61.18h-26.96v9.26h14.26v57.94h-14.26v9.24h38.33
			v-9.24H536.8v-37.44c0-3.12-0.32-7.62-0.99-13.49l30.18,60.96h5.8L602.22,153.93z"/>
	</defs>
	<clipPath id="SVGID_00000016773583713992321320000001505507081129856428_">
		<use xlink:href="#SVGID_00000060031117215609480930000000193585391337269426_"  style="overflow:visible;"/>
	</clipPath>
	
		<rect x="510.74" y="137.1" style="clip-path:url(#SVGID_00000016773583713992321320000001505507081129856428_);fill:#FFFFFF;" width="116.76" height="79.23"/>
</g>
<g>
	<defs>
		<path id="SVGID_00000154386038820301836680000009159039130588791456_" d="M782.15,174.99c3.58-1.63,6.39-3.89,8.44-6.73
			c2.01-2.86,3.06-6.31,3.06-10.31c0-5.94-2.21-10.74-6.62-14.38c-4.45-3.64-10.7-5.46-18.79-5.46h-43.57v9.25h14.38v57.95h-14.38
			v9.23h45.35c9.36,0,16.54-1.8,21.61-5.4c5.05-3.6,7.59-8.75,7.59-15.42C799.22,183.91,793.53,177.68,782.15,174.99z
			 M750.42,147.36h17.03c4.24,0,7.74,0.95,10.47,2.9c2.77,1.91,4.14,4.93,4.14,9.02c0,4.24-1.47,7.37-4.39,9.42
			c-2.94,2.05-7.01,3.06-12.23,3.06h-15.02V147.36z M768.92,205.31h-18.5v-25.1h18.36c5.96,0.1,10.58,1.12,13.87,3.13
			c3.31,1.99,4.97,5.17,4.97,9.48C787.63,201.13,781.38,205.31,768.92,205.31z"/>
	</defs>
	<clipPath id="SVGID_00000055691402554562334750000015365621652743053233_">
		<use xlink:href="#SVGID_00000154386038820301836680000009159039130588791456_"  style="overflow:visible;"/>
	</clipPath>
	
		<rect x="723.66" y="137.11" style="clip-path:url(#SVGID_00000055691402554562334750000015365621652743053233_);fill:#FFFFFF;" width="76.55" height="78.43"/>
</g>
<g>
	<defs>
		<path id="SVGID_00000059999597504284684150000005951810128148265865_" d="M324.72,206.55h84.61v7.91h9.21v-17.18h-9.21v0.02h-5.07
			l-3.99-7.02l-30.18-52.24h-5.79l-30.44,52.69l-3.91,6.58h-5.24v-0.02h-9.21v17.18h9.21V206.55z M366.74,154.09l25.81,43.24H341.4
			L366.74,154.09z"/>
	</defs>
	<clipPath id="SVGID_00000120549127822871057430000007036901587016630718_">
		<use xlink:href="#SVGID_00000059999597504284684150000005951810128148265865_"  style="overflow:visible;"/>
	</clipPath>
	
		<rect x="314.51" y="137.03" style="clip-path:url(#SVGID_00000120549127822871057430000007036901587016630718_);fill:#FFFFFF;" width="105.04" height="78.43"/>
</g>
<g>
	<defs>
		<path id="SVGID_00000070113344342704091580000006303655298034452412_" d="M49.13,270.48c0.17,0.17,0.25,0.4,0.25,0.71
			c0,0.34-0.25,0.77-0.76,1.29c-0.51,0.52-1.18,1.03-2.02,1.54c-0.84,0.51-1.81,0.93-2.9,1.29c-1.09,0.35-2.25,0.53-3.46,0.53
			c-1.55,0-3.05-0.25-4.52-0.76c-1.46-0.5-2.77-1.21-3.91-2.12c-1.14-0.9-2.06-1.99-2.75-3.25c-0.69-1.26-1.03-2.64-1.03-4.15
			c0-1.75,0.34-3.25,1.01-4.51c0.67-1.26,1.54-2.29,2.6-3.1c1.06-0.81,2.27-1.4,3.63-1.79c1.36-0.39,2.72-0.58,4.06-0.58
			s2.61,0.14,3.79,0.43c1.18,0.29,2.2,0.62,3.08,1.01c0.87,0.39,1.56,0.79,2.07,1.21c0.5,0.42,0.76,0.76,0.76,1.04
			c0,0.27-0.08,0.49-0.25,0.66l0.66,0.3l3.13-5.4l-0.61-0.4c-0.1,0.14-0.19,0.25-0.25,0.33c-0.07,0.08-0.24,0.13-0.5,0.13
			c-0.24,0-0.66-0.14-1.29-0.43c-0.62-0.29-1.42-0.6-2.4-0.93s-2.12-0.65-3.43-0.93c-1.31-0.29-2.81-0.43-4.49-0.43
			c-2.42,0-4.6,0.35-6.54,1.06c-1.94,0.71-3.58,1.66-4.95,2.85c-1.36,1.2-2.41,2.57-3.13,4.11c-0.72,1.55-1.09,3.18-1.09,4.9
			c0,2.05,0.39,3.95,1.16,5.68c0.77,1.73,1.86,3.23,3.26,4.49c1.4,1.26,3.07,2.23,5.02,2.9c1.95,0.67,4.11,1.01,6.46,1.01
			c2.12,0,3.92-0.21,5.4-0.62c1.48-0.41,2.7-0.88,3.66-1.41c0.96-0.53,1.7-1.01,2.22-1.45c0.52-0.44,0.87-0.66,1.03-0.66
			c0.3,0,0.56,0.12,0.76,0.35l0.66-0.46l-3.74-4.85L49.13,270.48z"/>
	</defs>
	<clipPath id="SVGID_00000070093216612763843680000015441013651423725982_">
		<use xlink:href="#SVGID_00000070113344342704091580000006303655298034452412_"  style="overflow:visible;"/>
	</clipPath>
	
		<rect x="22.89" y="251.16" style="clip-path:url(#SVGID_00000070093216612763843680000015441013651423725982_);fill:#FFFFFF;" width="31.63" height="29.01"/>
</g>
<g>
	<defs>
		<path id="SVGID_00000012442464114534585130000000883306318751992193_" d="M85.83,252.46h-21.2c-1.18,0-1.77-0.44-1.77-1.31h-0.6
			v5.96h0.6c0-0.5,0.13-0.85,0.41-1.03c0.27-0.18,0.72-0.28,1.36-0.28h8.48v21.4c0,0.37-0.08,0.67-0.25,0.88
			c-0.17,0.22-0.49,0.33-0.96,0.33v0.61h6.66v-0.61c-0.47,0-0.79-0.11-0.96-0.33s-0.25-0.51-0.25-0.88v-21.4h8.48
			c0.64,0,1.09,0.09,1.36,0.28c0.27,0.18,0.4,0.53,0.4,1.03h0.61v-5.96H87.6C87.6,252.02,87.01,252.46,85.83,252.46"/>
	</defs>
	<clipPath id="SVGID_00000140694244266180789840000016135045404730083225_">
		<use xlink:href="#SVGID_00000012442464114534585130000000883306318751992193_"  style="overflow:visible;"/>
	</clipPath>
	
		<rect x="61.26" y="250.15" style="clip-path:url(#SVGID_00000140694244266180789840000016135045404730083225_);fill:#FFFFFF;" width="27.95" height="29.87"/>
</g>
<g>
	<defs>
		<path id="SVGID_00000090984045101182596450000005203175825184601475_" d="M122.08,254.33c-1.45-1.24-3.84-1.87-7.17-1.87H97.95
			v0.61c0.47,0,0.79,0.11,0.96,0.33c0.17,0.22,0.25,0.51,0.25,0.88v22.92c0,0.37-0.08,0.67-0.25,0.88
			c-0.17,0.22-0.49,0.33-0.96,0.33v0.61h6.66v-0.61c-0.47,0-0.79-0.11-0.96-0.33c-0.17-0.22-0.25-0.51-0.25-0.88v-9.69h11.66
			c3.26,0,5.61-0.69,7.04-2.07c1.43-1.38,2.14-3.33,2.14-5.86C124.25,257.32,123.53,255.57,122.08,254.33 M119.15,262.91
			c-0.84,0.77-2.29,1.16-4.34,1.16H103.4v-8.18h11.41c2.22,0,3.71,0.31,4.47,0.94c0.76,0.62,1.14,1.59,1.14,2.9
			C120.41,261.08,119.99,262.14,119.15,262.91"/>
	</defs>
	<clipPath id="SVGID_00000018210524872459574010000010314082109884342707_">
		<use xlink:href="#SVGID_00000090984045101182596450000005203175825184601475_"  style="overflow:visible;"/>
	</clipPath>
	
		<rect x="96.95" y="251.46" style="clip-path:url(#SVGID_00000018210524872459574010000010314082109884342707_);fill:#FFFFFF;" width="28.3" height="28.55"/>
</g>
<g>
	<defs>
		<path id="SVGID_00000062909070512487904160000009873379105531869093_" d="M158.5,255.66c-1.36-1.16-2.97-2.04-4.82-2.62
			c-1.85-0.59-3.87-0.88-6.06-0.88c-2.19,0-4.21,0.29-6.06,0.88c-1.85,0.59-3.46,1.46-4.82,2.62c-1.36,1.16-2.42,2.58-3.18,4.27
			c-0.76,1.68-1.14,3.62-1.14,5.8c0,2.19,0.38,4.12,1.14,5.81c0.76,1.68,1.82,3.1,3.18,4.24c1.36,1.14,2.97,1.99,4.82,2.55
			c1.85,0.56,3.87,0.83,6.06,0.83c2.19,0,4.21-0.28,6.06-0.83c1.85-0.56,3.46-1.4,4.82-2.55c1.36-1.14,2.42-2.56,3.18-4.24
			c0.76-1.68,1.14-3.62,1.14-5.81c0-2.19-0.38-4.12-1.14-5.8C160.93,258.25,159.87,256.83,158.5,255.66 M155.57,273.14
			c-1.87,1.8-4.52,2.69-7.95,2.69s-6.08-0.9-7.95-2.69c-1.87-1.8-2.8-4.27-2.8-7.43c0-3.15,0.93-5.63,2.8-7.43s4.52-2.69,7.95-2.69
			s6.08,0.9,7.95,2.69c1.87,1.8,2.8,4.27,2.8,7.43C158.38,268.87,157.44,271.34,155.57,273.14"/>
	</defs>
	<clipPath id="SVGID_00000074444218612720034210000008501944071331549348_">
		<use xlink:href="#SVGID_00000062909070512487904160000009873379105531869093_"  style="overflow:visible;"/>
	</clipPath>
	
		<rect x="131.43" y="251.16" style="clip-path:url(#SVGID_00000074444218612720034210000008501944071331549348_);fill:#FFFFFF;" width="32.39" height="29.01"/>
</g>
<g>
	<defs>
		<path id="SVGID_00000134939537738329658970000018323242156103651216_" d="M193.86,253.07c0.37,0,0.62,0.04,0.76,0.13
			c0.13,0.08,0.2,0.23,0.2,0.43c0,0.17-0.14,0.39-0.4,0.66l-15.85,18.58h-0.1v-18.58c0-0.37,0.08-0.66,0.25-0.88
			c0.17-0.22,0.49-0.33,0.96-0.33v-0.6h-6.06v0.6c0.47,0,0.79,0.11,0.96,0.33c0.17,0.22,0.25,0.51,0.25,0.88v22.92
			c0,0.37-0.08,0.67-0.25,0.88c-0.17,0.22-0.49,0.33-0.96,0.33v0.61h6.46v-0.61c-0.67,0-1.01-0.13-1.01-0.4
			c0-0.24,0.07-0.43,0.2-0.58c0.13-0.15,0.24-0.28,0.3-0.38l17.97-20.95v21.1c0,0.37-0.08,0.67-0.25,0.88
			c-0.17,0.22-0.49,0.33-0.96,0.33v0.61h6.06v-0.61c-0.47,0-0.79-0.11-0.96-0.33c-0.17-0.22-0.25-0.51-0.25-0.88v-22.92
			c0-0.37,0.08-0.66,0.25-0.88c0.17-0.22,0.49-0.33,0.96-0.33v-0.6h-8.53V253.07z"/>
	</defs>
	<clipPath id="SVGID_00000167388651232572630560000010003520004848292494_">
		<use xlink:href="#SVGID_00000134939537738329658970000018323242156103651216_"  style="overflow:visible;"/>
	</clipPath>
	
		<rect x="172.62" y="251.46" style="clip-path:url(#SVGID_00000167388651232572630560000010003520004848292494_);fill:#FFFFFF;" width="30.77" height="28.55"/>
</g>
<g>
	<defs>
		<path id="SVGID_00000145042991869898655230000010274835159539048359_" d="M236.17,252.46h-21.2c-1.18,0-1.77-0.44-1.77-1.31h-0.6
			v5.96h0.6c0-0.5,0.13-0.85,0.4-1.03c0.27-0.18,0.72-0.28,1.36-0.28h8.48v21.4c0,0.37-0.08,0.67-0.25,0.88
			c-0.17,0.22-0.49,0.33-0.96,0.33v0.61h6.66v-0.61c-0.47,0-0.79-0.11-0.96-0.33s-0.25-0.51-0.25-0.88v-21.4h8.48
			c0.64,0,1.09,0.09,1.36,0.28c0.27,0.18,0.4,0.53,0.4,1.03h0.61v-5.96h-0.61C237.94,252.02,237.35,252.46,236.17,252.46"/>
	</defs>
	<clipPath id="SVGID_00000119078746921940922360000001698442837536641671_">
		<use xlink:href="#SVGID_00000145042991869898655230000010274835159539048359_"  style="overflow:visible;"/>
	</clipPath>
	
		<rect x="211.59" y="250.15" style="clip-path:url(#SVGID_00000119078746921940922360000001698442837536641671_);fill:#FFFFFF;" width="27.95" height="29.87"/>
</g>
<g>
	<defs>
		<path id="SVGID_00000106105756550466021500000015042549650809778877_" d="M272.36,275.3c-0.34,0.25-0.86,0.38-1.57,0.38h-16.86
			v-8.58h10.35c0.71,0,1.21,0.1,1.51,0.3c0.3,0.2,0.45,0.55,0.45,1.06h0.61v-6.11h-0.61c0,0.54-0.19,0.91-0.58,1.11
			c-0.39,0.2-0.88,0.3-1.49,0.3h-10.25v-7.98h15.75c0.77,0,1.29,0.13,1.57,0.38c0.27,0.25,0.4,0.6,0.4,1.04h0.61v-5.75h-0.61
			c0,0.37-0.12,0.63-0.35,0.78c-0.24,0.15-0.79,0.23-1.67,0.23h-21.15v0.6c0.47,0,0.79,0.11,0.96,0.33
			c0.17,0.22,0.25,0.51,0.25,0.88v22.92c0,0.37-0.08,0.66-0.25,0.88c-0.17,0.22-0.49,0.33-0.96,0.33v0.61h22.62
			c1.18,0,1.77,0.32,1.77,0.96h0.61v-6.01h-0.61C272.87,274.6,272.7,275.05,272.36,275.3"/>
	</defs>
	<clipPath id="SVGID_00000043428877641324337120000000530968648266767255_">
		<use xlink:href="#SVGID_00000106105756550466021500000015042549650809778877_"  style="overflow:visible;"/>
	</clipPath>
	
		<rect x="247.49" y="250.45" style="clip-path:url(#SVGID_00000043428877641324337120000000530968648266767255_);fill:#FFFFFF;" width="26.99" height="30.52"/>
</g>
<g>
	<defs>
		<path id="SVGID_00000014632409140797898970000005682970980246290349_" d="M310.71,278.05c-0.15-0.17-0.31-0.42-0.48-0.76
			c-0.17-0.33-0.4-0.81-0.71-1.41l-9.44-20.09c-0.27-0.57-0.49-1.02-0.66-1.34c-0.17-0.32-0.25-0.58-0.25-0.78
			c0-0.4,0.27-0.61,0.81-0.61v-0.61h-7.88v0.61c0.61,0,0.91,0.2,0.91,0.61c0,0.17-0.07,0.4-0.2,0.68c-0.14,0.29-0.34,0.71-0.61,1.29
			l-8.89,20.4c-0.27,0.54-0.49,0.97-0.66,1.29c-0.17,0.32-0.32,0.55-0.45,0.71c-0.14,0.15-0.28,0.25-0.43,0.3
			c-0.15,0.05-0.33,0.08-0.53,0.08v0.61h6.61v-0.61c-0.57,0-0.86-0.18-0.86-0.55c0-0.2,0.08-0.49,0.25-0.86
			c0.17-0.37,0.32-0.71,0.45-1.01l8.18-19.28l8.98,19.28c0.27,0.61,0.45,1,0.53,1.19c0.08,0.18,0.12,0.36,0.12,0.53
			c0,0.24-0.07,0.41-0.2,0.53c-0.14,0.12-0.4,0.18-0.81,0.18v0.61h7.37v-0.61c-0.3,0-0.54-0.02-0.71-0.05
			C311.02,278.32,310.86,278.22,310.71,278.05"/>
	</defs>
	<clipPath id="SVGID_00000111879714077942178370000005156681272098303159_">
		<use xlink:href="#SVGID_00000014632409140797898970000005682970980246290349_"  style="overflow:visible;"/>
	</clipPath>
	
		<rect x="280.25" y="251.46" style="clip-path:url(#SVGID_00000111879714077942178370000005156681272098303159_);fill:#FFFFFF;" width="32.64" height="28.55"/>
</g>
<g>
	<defs>
		<path id="SVGID_00000158030053563700283260000004885478007966176693_" d="M344.76,264.9c-0.77-0.76-1.78-1.36-3-1.79
			c-1.23-0.44-2.72-0.66-4.47-0.66h-11.16v-8.18c0-0.37,0.08-0.66,0.25-0.88c0.17-0.22,0.49-0.33,0.96-0.33v-0.6h-6.66v0.6
			c0.47,0,0.79,0.11,0.96,0.33c0.17,0.22,0.25,0.51,0.25,0.88v22.92c0,0.37-0.08,0.67-0.25,0.88c-0.17,0.22-0.49,0.33-0.96,0.33
			v0.61h16.46c1.78,0,3.3-0.2,4.54-0.61c1.24-0.4,2.26-0.96,3.05-1.67c0.79-0.71,1.36-1.54,1.72-2.5c0.35-0.96,0.53-1.99,0.53-3.11
			c0-1.24-0.18-2.41-0.53-3.48C346.09,266.58,345.53,265.66,344.76,264.9 M342.71,272.83c-0.15,0.56-0.45,1.04-0.88,1.44
			s-1.03,0.72-1.79,0.96c-0.76,0.24-1.76,0.35-3,0.35h-10.9v-9.69h10.9c1.14,0,2.09,0.14,2.85,0.43c0.76,0.29,1.36,0.66,1.82,1.14
			c0.46,0.47,0.77,1.01,0.96,1.62c0.18,0.61,0.28,1.24,0.28,1.92C342.94,271.66,342.86,272.27,342.71,272.83"/>
	</defs>
	<clipPath id="SVGID_00000109029194425235643350000003031958650799524999_">
		<use xlink:href="#SVGID_00000158030053563700283260000004885478007966176693_"  style="overflow:visible;"/>
	</clipPath>
	
		<rect x="319.68" y="251.46" style="clip-path:url(#SVGID_00000109029194425235643350000003031958650799524999_);fill:#FFFFFF;" width="28.3" height="28.55"/>
</g>
<g>
	<defs>
		<path id="SVGID_00000089548151397893724900000012242489326565615288_" d="M379.49,253.07c0.47,0,0.79,0.11,0.96,0.33
			c0.17,0.22,0.25,0.51,0.25,0.88v9.49h-17.87v-9.49c0-0.37,0.08-0.66,0.25-0.88c0.17-0.22,0.49-0.33,0.96-0.33v-0.6h-6.66v0.6
			c0.47,0,0.79,0.11,0.96,0.33c0.17,0.22,0.25,0.51,0.25,0.88v22.92c0,0.37-0.08,0.67-0.25,0.88c-0.17,0.22-0.49,0.33-0.96,0.33
			v0.61h6.66v-0.61c-0.47,0-0.79-0.11-0.96-0.33c-0.17-0.22-0.25-0.51-0.25-0.88v-10.1h17.87v10.1c0,0.37-0.08,0.67-0.25,0.88
			c-0.17,0.22-0.49,0.33-0.96,0.33v0.61h6.66v-0.61c-0.47,0-0.79-0.11-0.96-0.33c-0.17-0.22-0.25-0.51-0.25-0.88v-22.92
			c0-0.37,0.08-0.66,0.25-0.88c0.17-0.22,0.49-0.33,0.96-0.33v-0.6h-6.66V253.07z"/>
	</defs>
	<clipPath id="SVGID_00000040574267176897686440000016121515404218200722_">
		<use xlink:href="#SVGID_00000089548151397893724900000012242489326565615288_"  style="overflow:visible;"/>
	</clipPath>
	
		<rect x="356.38" y="251.46" style="clip-path:url(#SVGID_00000040574267176897686440000016121515404218200722_);fill:#FFFFFF;" width="30.77" height="28.55"/>
</g>
<g>
	<defs>
		<path id="SVGID_00000112609541599531375810000008599457350992241317_" d="M424.9,278.05c-0.15-0.17-0.31-0.42-0.48-0.76
			c-0.17-0.34-0.4-0.81-0.71-1.41l-9.69-20.09c-0.27-0.57-0.49-1.02-0.66-1.34c-0.17-0.32-0.25-0.58-0.25-0.78
			c0-0.4,0.27-0.61,0.81-0.61v-0.6h-7.37v0.6c0.61,0,0.91,0.2,0.91,0.61c0,0.17-0.07,0.4-0.2,0.68c-0.13,0.29-0.34,0.71-0.61,1.29
			l-9.14,20.4c-0.27,0.54-0.49,0.97-0.66,1.29c-0.17,0.32-0.32,0.56-0.45,0.73c-0.13,0.17-0.28,0.27-0.43,0.3
			c-0.15,0.03-0.33,0.05-0.53,0.05v0.61h6.21v-0.61c-0.57,0-0.86-0.18-0.86-0.55c0-0.2,0.08-0.49,0.25-0.86
			c0.17-0.37,0.32-0.71,0.45-1.01l1.72-4.04h14.29l1.92,4.04c0.27,0.61,0.45,1,0.53,1.19c0.08,0.18,0.13,0.36,0.13,0.53
			c0,0.24-0.07,0.41-0.2,0.53c-0.14,0.12-0.4,0.18-0.81,0.18v0.61h7.02v-0.61c-0.3,0-0.54-0.02-0.71-0.05
			C425.21,278.32,425.05,278.22,424.9,278.05z M404.83,268.61l5.25-11.91l5.71,11.91H404.83z"/>
	</defs>
	<clipPath id="SVGID_00000122716899481729953100000003275976527064940733_">
		<use xlink:href="#SVGID_00000112609541599531375810000008599457350992241317_"  style="overflow:visible;"/>
	</clipPath>
	
		<rect x="394.44" y="251.46" style="clip-path:url(#SVGID_00000122716899481729953100000003275976527064940733_);fill:#FFFFFF;" width="32.64" height="28.55"/>
</g>
<g>
	<defs>
		<path id="SVGID_00000071560752622250390450000005760487886671029427_" d="M437.24,254.35c-1.45,1.26-2.17,3.09-2.17,5.48
			c0,2.12,0.56,3.8,1.67,5.05c1.11,1.25,2.93,2.04,5.45,2.37l-6.36,9.84c-0.37,0.54-0.67,0.89-0.88,1.06
			c-0.22,0.17-0.58,0.25-1.09,0.25v0.61h7.17v-0.61c-0.44,0-0.71-0.03-0.83-0.1c-0.12-0.07-0.18-0.18-0.18-0.35
			c0-0.2,0.08-0.39,0.25-0.56l6.06-9.89h9.54v9.69c0,0.37-0.08,0.67-0.25,0.88c-0.17,0.22-0.49,0.33-0.96,0.33v0.61h6.66v-0.61
			c-0.47,0-0.79-0.11-0.96-0.33c-0.17-0.22-0.25-0.51-0.25-0.88v-22.92c0-0.37,0.08-0.66,0.25-0.88c0.17-0.22,0.49-0.33,0.96-0.33
			v-0.61h-16.91C441.08,252.46,438.69,253.09,437.24,254.35z M455.87,255.89v8.18h-11.05c-2.05,0-3.5-0.39-4.34-1.16
			c-0.84-0.78-1.26-1.83-1.26-3.18c0-0.64,0.08-1.2,0.25-1.69c0.17-0.49,0.47-0.89,0.91-1.21c0.44-0.32,1.03-0.56,1.79-0.71
			c0.76-0.15,1.73-0.23,2.9-0.23H455.87z"/>
	</defs>
	<clipPath id="SVGID_00000083811290929754799560000000855642347104336001_">
		<use xlink:href="#SVGID_00000071560752622250390450000005760487886671029427_"  style="overflow:visible;"/>
	</clipPath>
	
		<rect x="432.86" y="251.46" style="clip-path:url(#SVGID_00000083811290929754799560000000855642347104336001_);fill:#FFFFFF;" width="29.46" height="28.55"/>
</g>
<g>
	<defs>
		<path id="SVGID_00000062904176119040720400000007029177249653522575_" d="M518.46,277.2l-12.17-15.65l9.69-7.27
			c0.64-0.47,1.09-0.79,1.36-0.96c0.27-0.17,0.66-0.25,1.16-0.25v-0.61h-7.57v0.61c0.27,0,0.46,0.05,0.58,0.15
			c0.12,0.1,0.18,0.2,0.18,0.3c0,0.14-0.06,0.25-0.18,0.35c-0.12,0.1-0.3,0.24-0.53,0.4l-13.73,10.3v-10.3
			c0-0.37,0.08-0.66,0.25-0.88c0.17-0.22,0.49-0.33,0.96-0.33v-0.61h-6.66v0.61c0.47,0,0.79,0.11,0.96,0.33s0.25,0.51,0.25,0.88
			v22.92c0,0.37-0.08,0.67-0.25,0.88s-0.49,0.33-0.96,0.33v0.61h6.66v-0.61c-0.47,0-0.79-0.11-0.96-0.33
			c-0.17-0.22-0.25-0.51-0.25-0.88v-8.89l5.96-4.44l9.94,12.87c0.44,0.54,0.66,0.96,0.66,1.26c0,0.27-0.22,0.4-0.66,0.4v0.61h6.97
			v-0.61c-0.37,0-0.66-0.09-0.88-0.28C519.03,277.95,518.77,277.63,518.46,277.2"/>
	</defs>
	<clipPath id="SVGID_00000017487534565344508980000014608888279189692597_">
		<use xlink:href="#SVGID_00000062904176119040720400000007029177249653522575_"  style="overflow:visible;"/>
	</clipPath>
	
		<rect x="490.81" y="251.46" style="clip-path:url(#SVGID_00000017487534565344508980000014608888279189692597_);fill:#FFFFFF;" width="30.32" height="28.55"/>
</g>
<g>
	<defs>
		<path id="SVGID_00000136370286137115773300000000882997712014597010_" d="M552.36,255.66c-1.36-1.16-2.97-2.04-4.82-2.62
			c-1.85-0.59-3.87-0.88-6.06-0.88c-2.19,0-4.21,0.29-6.06,0.88c-1.85,0.59-3.46,1.46-4.82,2.62c-1.36,1.16-2.42,2.58-3.18,4.27
			c-0.76,1.68-1.14,3.62-1.14,5.8c0,2.19,0.38,4.12,1.14,5.81c0.76,1.68,1.82,3.1,3.18,4.24c1.36,1.14,2.97,1.99,4.82,2.55
			c1.85,0.56,3.87,0.83,6.06,0.83c2.19,0,4.21-0.28,6.06-0.83c1.85-0.56,3.46-1.4,4.82-2.55c1.36-1.14,2.42-2.56,3.18-4.24
			c0.76-1.68,1.14-3.62,1.14-5.81c0-2.19-0.38-4.12-1.14-5.8C554.79,258.25,553.73,256.83,552.36,255.66 M549.44,273.14
			c-1.87,1.8-4.52,2.69-7.95,2.69c-3.43,0-6.08-0.9-7.95-2.69c-1.87-1.8-2.8-4.27-2.8-7.43c0-3.15,0.93-5.63,2.8-7.43
			s4.52-2.69,7.95-2.69c3.43,0,6.08,0.9,7.95,2.69c1.87,1.8,2.8,4.27,2.8,7.43C552.24,268.87,551.3,271.34,549.44,273.14"/>
	</defs>
	<clipPath id="SVGID_00000113324158318305652360000007796827646333628032_">
		<use xlink:href="#SVGID_00000136370286137115773300000000882997712014597010_"  style="overflow:visible;"/>
	</clipPath>
	
		<rect x="525.29" y="251.16" style="clip-path:url(#SVGID_00000113324158318305652360000007796827646333628032_);fill:#FFFFFF;" width="32.39" height="29.01"/>
</g>
<g>
	<defs>
		<path id="SVGID_00000111892979014695421060000016234802308686158744_" d="M590.35,253.07c0.47,0,0.8,0.06,0.98,0.18
			c0.18,0.12,0.28,0.26,0.28,0.43c0,0.1-0.03,0.2-0.08,0.3c-0.05,0.1-0.09,0.2-0.13,0.3l-8.53,16.15l-8.23-16.15
			c-0.14-0.17-0.2-0.35-0.2-0.56c0-0.44,0.39-0.66,1.16-0.66v-0.6h-8.53v0.6c0.57,0,0.95,0.11,1.14,0.33
			c0.18,0.22,0.28,0.51,0.28,0.88v22.92c0,0.37-0.08,0.67-0.25,0.88c-0.17,0.22-0.52,0.33-1.06,0.33v0.61h6.01v-0.61
			c-0.47,0-0.79-0.11-0.96-0.33c-0.17-0.22-0.24-0.51-0.2-0.88v-19.94l0.05-0.1l10.75,21.35l10.75-21.35l0.15,0.1v19.94
			c0,0.37-0.09,0.67-0.28,0.88c-0.19,0.22-0.57,0.33-1.14,0.33v0.61h7.07v-0.61c-0.57,0-0.95-0.11-1.14-0.33
			c-0.18-0.22-0.28-0.51-0.28-0.88v-22.92c0-0.37,0.09-0.66,0.28-0.88c0.18-0.22,0.56-0.33,1.14-0.33v-0.6h-9.04V253.07z"/>
	</defs>
	<clipPath id="SVGID_00000176031697014171824940000009297884320830034326_">
		<use xlink:href="#SVGID_00000111892979014695421060000016234802308686158744_"  style="overflow:visible;"/>
	</clipPath>
	
		<rect x="566.08" y="251.46" style="clip-path:url(#SVGID_00000176031697014171824940000009297884320830034326_);fill:#FFFFFF;" width="34.31" height="28.55"/>
</g>
<g>
	<defs>
		<path id="SVGID_00000171703410010362768670000015213621644122921872_" d="M612.06,253.07c0.47,0,0.79,0.11,0.96,0.33
			c0.17,0.22,0.25,0.51,0.25,0.88v22.92c0,0.37-0.08,0.67-0.25,0.88c-0.17,0.22-0.49,0.33-0.96,0.33v0.61h6.66v-0.61
			c-0.47,0-0.79-0.11-0.96-0.33c-0.17-0.22-0.25-0.51-0.25-0.88v-21.41h17.11v21.41c0,0.37-0.08,0.67-0.25,0.88
			c-0.17,0.22-0.49,0.33-0.96,0.33v0.61h6.66v-0.61c-0.47,0-0.79-0.11-0.96-0.33c-0.17-0.22-0.25-0.51-0.25-0.88v-22.92
			c0-0.37,0.08-0.66,0.25-0.88c0.17-0.22,0.49-0.33,0.96-0.33v-0.6h-28.02V253.07z"/>
	</defs>
	<clipPath id="SVGID_00000171713992628424809880000007477783516336283777_">
		<use xlink:href="#SVGID_00000171703410010362768670000015213621644122921872_"  style="overflow:visible;"/>
	</clipPath>
	
		<rect x="611.06" y="251.46" style="clip-path:url(#SVGID_00000171713992628424809880000007477783516336283777_);fill:#FFFFFF;" width="30.02" height="28.55"/>
</g>
<g>
	<defs>
		<path id="SVGID_00000106143282957506362580000007044743182765935764_" d="M678.82,278.05c-0.15-0.17-0.31-0.42-0.48-0.76
			c-0.17-0.34-0.4-0.81-0.71-1.41l-9.69-20.09c-0.27-0.57-0.49-1.02-0.66-1.34c-0.17-0.32-0.25-0.58-0.25-0.78
			c0-0.4,0.27-0.61,0.81-0.61v-0.6h-7.37v0.6c0.61,0,0.91,0.2,0.91,0.61c0,0.17-0.07,0.4-0.2,0.68c-0.14,0.29-0.34,0.71-0.61,1.29
			l-9.14,20.4c-0.27,0.54-0.49,0.97-0.66,1.29c-0.17,0.32-0.32,0.56-0.45,0.73c-0.14,0.17-0.28,0.27-0.43,0.3
			c-0.15,0.03-0.33,0.05-0.53,0.05v0.61h6.21v-0.61c-0.57,0-0.86-0.18-0.86-0.55c0-0.2,0.08-0.49,0.25-0.86
			c0.17-0.37,0.32-0.71,0.45-1.01l1.72-4.04h14.29l1.92,4.04c0.27,0.61,0.45,1,0.53,1.19s0.13,0.36,0.13,0.53
			c0,0.24-0.07,0.41-0.2,0.53c-0.14,0.12-0.4,0.18-0.81,0.18v0.61h7.02v-0.61c-0.3,0-0.54-0.02-0.71-0.05
			C679.13,278.32,678.97,278.22,678.82,278.05z M658.75,268.61L664,256.7l5.71,11.91H658.75z"/>
	</defs>
	<clipPath id="SVGID_00000013871245350315143810000009567092886080116623_">
		<use xlink:href="#SVGID_00000106143282957506362580000007044743182765935764_"  style="overflow:visible;"/>
	</clipPath>
	
		<rect x="648.36" y="251.46" style="clip-path:url(#SVGID_00000013871245350315143810000009567092886080116623_);fill:#FFFFFF;" width="32.64" height="28.55"/>
</g>
<g>
	<defs>
		<path id="SVGID_00000005238526701473826400000005386450088185049495_" d="M711.41,253.07c0.47,0,0.79,0.11,0.96,0.33
			c0.17,0.22,0.25,0.51,0.25,0.88v9.49h-17.87v-9.49c0-0.37,0.08-0.66,0.25-0.88c0.17-0.22,0.49-0.33,0.96-0.33v-0.6h-6.66v0.6
			c0.47,0,0.79,0.11,0.96,0.33c0.17,0.22,0.25,0.51,0.25,0.88v22.92c0,0.37-0.08,0.67-0.25,0.88c-0.17,0.22-0.49,0.33-0.96,0.33
			v0.61h6.66v-0.61c-0.47,0-0.79-0.11-0.96-0.33c-0.17-0.22-0.25-0.51-0.25-0.88v-10.1h17.87v10.1c0,0.37-0.08,0.67-0.25,0.88
			c-0.17,0.22-0.49,0.33-0.96,0.33v0.61h6.66v-0.61c-0.47,0-0.79-0.11-0.96-0.33c-0.17-0.22-0.25-0.51-0.25-0.88v-22.92
			c0-0.37,0.08-0.66,0.25-0.88c0.17-0.22,0.49-0.33,0.96-0.33v-0.6h-6.66V253.07z"/>
	</defs>
	<clipPath id="SVGID_00000123425911298908213400000001252721635388499094_">
		<use xlink:href="#SVGID_00000005238526701473826400000005386450088185049495_"  style="overflow:visible;"/>
	</clipPath>
	
		<rect x="688.3" y="251.46" style="clip-path:url(#SVGID_00000123425911298908213400000001252721635388499094_);fill:#FFFFFF;" width="30.78" height="28.55"/>
</g>
<g>
	<defs>
		<path id="SVGID_00000092437462378046850650000013254818873173767591_" d="M751.34,253.07c0.37,0,0.62,0.04,0.76,0.13
			c0.13,0.08,0.2,0.23,0.2,0.43c0,0.17-0.14,0.39-0.4,0.66l-15.85,18.58h-0.1v-18.58c0-0.37,0.08-0.66,0.25-0.88
			c0.17-0.22,0.49-0.33,0.96-0.33v-0.6h-6.06v0.6c0.47,0,0.79,0.11,0.96,0.33c0.17,0.22,0.25,0.51,0.25,0.88v22.92
			c0,0.37-0.08,0.67-0.25,0.88c-0.17,0.22-0.49,0.33-0.96,0.33v0.61h6.46v-0.61c-0.67,0-1.01-0.13-1.01-0.4
			c0-0.24,0.07-0.43,0.2-0.58c0.13-0.15,0.23-0.28,0.3-0.38l17.97-20.95v21.1c0,0.37-0.08,0.67-0.25,0.88
			c-0.17,0.22-0.49,0.33-0.96,0.33v0.61h6.06v-0.61c-0.47,0-0.79-0.11-0.96-0.33c-0.17-0.22-0.25-0.51-0.25-0.88v-22.92
			c0-0.37,0.08-0.66,0.25-0.88c0.17-0.22,0.49-0.33,0.96-0.33v-0.6h-8.53V253.07z"/>
	</defs>
	<clipPath id="SVGID_00000031924525644763669770000006500473359266070952_">
		<use xlink:href="#SVGID_00000092437462378046850650000013254818873173767591_"  style="overflow:visible;"/>
	</clipPath>
	
		<rect x="730.09" y="251.46" style="clip-path:url(#SVGID_00000031924525644763669770000006500473359266070952_);fill:#FFFFFF;" width="30.77" height="28.55"/>
</g>
<g>
	<defs>
		<path id="SVGID_00000060029137463946697220000015030971923855512252_" d="M774.76,254.35c-1.45,1.26-2.17,3.09-2.17,5.48
			c0,2.12,0.56,3.8,1.67,5.05c1.11,1.25,2.93,2.04,5.45,2.37l-6.36,9.84c-0.37,0.54-0.66,0.89-0.88,1.06
			c-0.22,0.17-0.58,0.25-1.09,0.25v0.61h7.17v-0.61c-0.44,0-0.71-0.03-0.83-0.1c-0.12-0.07-0.18-0.18-0.18-0.35
			c0-0.2,0.08-0.39,0.25-0.56l6.06-9.89h9.54v9.69c0,0.37-0.08,0.67-0.25,0.88c-0.17,0.22-0.49,0.33-0.96,0.33v0.61h6.66v-0.61
			c-0.47,0-0.79-0.11-0.96-0.33c-0.17-0.22-0.25-0.51-0.25-0.88v-22.92c0-0.37,0.08-0.66,0.25-0.88c0.17-0.22,0.49-0.33,0.96-0.33
			v-0.61h-16.91C778.6,252.46,776.21,253.09,774.76,254.35z M793.39,255.89v8.18h-11.05c-2.05,0-3.5-0.39-4.34-1.16
			c-0.84-0.78-1.26-1.83-1.26-3.18c0-0.64,0.08-1.2,0.25-1.69c0.17-0.49,0.47-0.89,0.91-1.21c0.44-0.32,1.04-0.56,1.79-0.71
			c0.76-0.15,1.72-0.23,2.9-0.23H793.39z"/>
	</defs>
	<clipPath id="SVGID_00000134212216304470642020000013651466911865122486_">
		<use xlink:href="#SVGID_00000060029137463946697220000015030971923855512252_"  style="overflow:visible;"/>
	</clipPath>
	
		<rect x="770.38" y="251.46" style="clip-path:url(#SVGID_00000134212216304470642020000013651466911865122486_);fill:#FFFFFF;" width="29.46" height="28.55"/>
</g>
<g>
	<defs>
		<path id="SVGID_00000148634698162169743960000003192167893157251991_" d="M736.49,17.71c17.84,29.84,38.97,64.77,57.22,94.65
			c-6.1,0.07-31.64,0.35-31.64,0.35s-33.31,0.44-34.73,0.46c-0.7-1.21-12.16-20.96-13.41-23.12c13.64-0.18,38.83-0.59,51.6-0.82
			L739,88.78l-26.52-0.38l-1.41-0.02l0.68,1.27l13.71,25.48l0.35,0.65l0.78,0.01c17.7,0.27,53.24,0.66,70.95,0.87l3.79,0.04
			c-0.34-0.46-15.58-27-16.49-28.42c-13.37-22.93-31.41-53.72-44.94-76.54c0,0-1.71,0-1.71,0C615.33,11.54,489.75,12,366.98,14.72
			C489.2,17.43,614.16,17.9,736.49,17.71"/>
	</defs>
	<clipPath id="SVGID_00000183957976859985914350000005950134929396792723_">
		<use xlink:href="#SVGID_00000148634698162169743960000003192167893157251991_"  style="overflow:visible;"/>
	</clipPath>
	
		<rect x="365.98" y="10.69" style="clip-path:url(#SVGID_00000183957976859985914350000005950134929396792723_);fill:#FFFFFF;" width="436.35" height="107"/>
</g>
<g>
	<defs>
		<path id="SVGID_00000109720371082094262410000009141088130425512123_" d="M365.63,115.78l-0.83-1.21l-1.16,0.81
			c-10.81,7.5-22.02,15.36-32.48,23.29c10.95-6.32,22.1-13.31,32.84-20.12c1.25,1.94,3.49,5.42,3.86,6
			c3.11-2.01,6.28-4.02,9.36-6.08c-3.89-5.92-8.92-13.62-12.87-19.43c-0.27-0.03-5.51-0.64-5.96-0.69l-1.37-0.16
			c-0.61,2.11-1.21,4.26-1.77,6.38l-0.19,0.72l0.39,0.58l3.54,5.18c-5.29,3.64-10.55,7.32-15.77,11.05
			c-5.64,4.01-11.23,8.08-16.75,12.26c3-1.73,5.98-3.49,8.94-5.27c9.29-5.61,18.5-11.35,27.61-17.23c-0.41-0.64-3.39-5.27-4.57-7.09
			c0.3-1.01,0.6-2.01,0.9-3.02l3.09,0.39c3.02,4.6,7.07,10.69,10.28,15.46c-1.34,0.9-2.67,1.81-4.01,2.72L365.63,115.78z"/>
	</defs>
	<clipPath id="SVGID_00000145774935916810914990000011423643340705471662_">
		<use xlink:href="#SVGID_00000109720371082094262410000009141088130425512123_"  style="overflow:visible;"/>
	</clipPath>
	
		<rect x="325.46" y="97.18" style="clip-path:url(#SVGID_00000145774935916810914990000011423643340705471662_);fill:#FFFFFF;" width="52.75" height="42.48"/>
</g>
<g>
	<defs>
		<path id="SVGID_00000038384246247337871570000015660588654895745440_" d="M129.81,165.58c-1.18-2.5-2.34-5.11-3.11-7.76
			c-2.54-7.91-3.59-16.29-3.8-24.57c-0.64-37.37,14.72-79.63,50.22-96.54c35.49-16.13,78.21-2.34,110.47,15.68
			c-31.56-21.71-75.62-36.68-112.52-20.15c-26.64,12.02-42.89,39.49-48.44,67.32c-3.61,17.95-3.82,37.03,1.89,54.56
			C125.79,158.11,127.64,162,129.81,165.58"/>
	</defs>
	<clipPath id="SVGID_00000123406007780083298720000001654379312305669773_">
		<use xlink:href="#SVGID_00000038384246247337871570000015660588654895745440_"  style="overflow:visible;"/>
	</clipPath>
	
		<rect x="117.8" y="14.71" style="clip-path:url(#SVGID_00000123406007780083298720000001654379312305669773_);fill:#FFFFFF;" width="166.78" height="151.87"/>
</g>
<g>
	<defs>
		<path id="SVGID_00000086653152831887758850000008762557278099918478_" d="M322.54,32.6c9.85,2.62,19.03,7.54,27.22,13.55
			c3.21,2.44,6.29,5.1,9.23,7.91c-2.13,1.26-4.8,3.47-4.22,6.4c0.77,3.84,6.5,7.14,8.66,8.26c-7.89,16.32-24.26,27.46-40.75,34.42
			c-6.65,2.81-13.52,5.17-20.6,6.91c10.92-1.26,21.64-4.35,31.66-8.88c17.04-7.55,32.47-21.14,37.66-39.56l0.4-1.29l-0.91-1
			c-5.43-6.3-11.52-12.17-18.21-17.12c-8.7-6.34-18.61-11.23-29.11-13.67c-18.43-4.32-38.66-1.45-54.95,8.2
			C285.44,29.45,304.87,27.64,322.54,32.6"/>
	</defs>
	<clipPath id="SVGID_00000039836540897191554250000008890883427865214363_">
		<use xlink:href="#SVGID_00000086653152831887758850000008762557278099918478_"  style="overflow:visible;"/>
	</clipPath>
	
		<rect x="267.63" y="23.2" style="clip-path:url(#SVGID_00000039836540897191554250000008890883427865214363_);fill:#FFFFFF;" width="105.18" height="87.85"/>
</g>
<g>
	<defs>
		<path id="SVGID_00000098219444725149616900000010177139943018899113_" d="M67.94,225.29c24.96-6.18,49.07-16.01,71.36-28.62
			c-27.95,12.49-56.95,22.76-87.24,27.15c-7.34,0.97-34.01,3.92-34.95-6.23c0.21-5.57,4.55-9.8,9.26-13.15
			c8.19-5.53,17.87-8.96,27.35-11.9c9.72-2.9,19.65-5.17,29.63-7.1c10.08-1.89,20.25-3.58,30.44-4.79l0.14-0.07l9.3-4.41l9.27-4.48
			l0.7-0.34l-0.68-0.32l-7.45-3.48c0,0,5.33,3.09,6.43,3.73c-4.97,1.87-13.98,5.33-18.52,7.11c-3.15-0.04-10.44,0.87-14.99,1.32
			c-22.96,2.81-64.5,9.02-80.68,26.01c-7.25,7.89-7.72,18.45,3.81,22.19C35.21,232.21,53.81,228.47,67.94,225.29"/>
	</defs>
	<clipPath id="SVGID_00000041288385480936141210000006545692343599316642_">
		<use xlink:href="#SVGID_00000098219444725149616900000010177139943018899113_"  style="overflow:visible;"/>
	</clipPath>
	
		<rect x="11.11" y="166.56" style="clip-path:url(#SVGID_00000041288385480936141210000006545692343599316642_);fill:#FFFFFF;" width="129.19" height="66.66"/>
</g>
<g>
	<defs>
		<path id="SVGID_00000017494226747168968110000012739863773159000507_" d="M281.67,205.45c0.9-0.27,1.65-0.83,1.86-1.94
			c0.1-0.51,0-1.01-0.17-1.48c0.47-0.07,0.96-0.18,1.45-0.39c1.17-0.51,1.76-2.09,1.18-3.25c-0.07-0.18-0.18-0.35-0.3-0.52
			c0.27-0.06,0.56-0.13,0.84-0.22c2.1-0.6,2.63-2.95,0.96-4.4l-0.24-0.21l-0.33-0.29l-0.51-0.12c-8.51-2.02-17.26-4.5-26.09-5.51
			c-7.48-1.02-14.98,0.74-22.31,1.67c-5.57,0.51-11.25-0.37-16.42-2.51l-2.12-0.87c6.13-9.37,11.02-19.43,15.94-29.45
			c2.63-5.29,5.04-11.12,6.1-16.96c6.24-31.89-24.91-54.82-51.26-64.78c25.14,10.84,55.23,33.36,48.69,64.27
			c-1.14,5.59-3.59,11.09-6.19,16.16c-5.68,11.04-11.24,22.35-18.67,32.32c1.24,0.53,4.9,2.07,6.14,2.61
			c4.26,1.81,8.85,2.85,13.48,3.03c7.39,0.31,14.62-2.13,21.97-1.9c8.62,0.44,16.84,2.66,25.21,4.76c-0.23,0.25-0.41,0.54-0.53,0.89
			c-0.23,0.66-0.11,1.35,0.2,1.92c-0.29,0.08-0.56,0.17-0.8,0.31c-0.72,0.36-1.29,1.31-1.24,2.1c0,0.31,0.06,0.59,0.14,0.87
			c-0.26,0.01-0.53,0.04-0.82,0.09c-0.88,0.16-1.83,0.75-2.08,1.72c-0.17,0.6-0.09,1.12,0.13,1.57c-1.65,0.18-3.39,0.07-4.99,0.04
			l-6.29-0.24c-8.08-0.28-29.36-1.01-37.72-1.3c-11.6-0.32-26.01-1.53-37.67-2.15c-3.56-0.23-8.98-0.49-12.45-0.91
			c-4.1-0.48-8.19-1.14-12.15-2.12c-3.73-0.97-7.8-2.18-10.76-4.55c-1.67-1.31-1.75-2.47-2.39-4.61
			c-4.81-13.95-11.99-26.94-17.24-40.66c-5.82-32.09-5.45-55.25,21.24-79.3c-27.49,22.68-29.31,47.19-23.69,80.23
			c5.32,14.96,12.95,28.74,17.43,43.96c4.11,8.11,21.91,10.14,30.29,11.13c10.31,0.81,24.25,1.71,34.6,2.45
			c14.25,0.9,36.03,1.41,50.32,2.04l6.29,0.22c2.52,0.09,10.61,0.45,11.03-2.9C281.76,205.95,281.73,205.69,281.67,205.45"/>
	</defs>
	<clipPath id="SVGID_00000080888809951927786020000010781599349661955517_">
		<use xlink:href="#SVGID_00000017494226747168968110000012739863773159000507_"  style="overflow:visible;"/>
	</clipPath>
	
		<rect x="125.12" y="68.13" style="clip-path:url(#SVGID_00000080888809951927786020000010781599349661955517_);fill:#FFFFFF;" width="165.03" height="142.47"/>
</g>
<g>
	<defs>
		<path id="SVGID_00000124159097450857699270000013040311876321859763_" d="M320.66,149.67c0.38-0.4,1.6-1.61,2.46-2.49
			c0.76,0.21,1.63,0.44,1.63,0.44c2.68,1.05,5.62-0.82,5.51-3.77c-0.19-2.04-1.84-3.51-3.25-4.72c-3.37-2.61-7.4-3.72-11.44-4.42
			c-3.82-0.58-7.43-0.58-10.95-1.97c-8.78-3.08-10.71-12.32-6.2-19.97c4.25-7.79-1.12-22.71-4.16-30.49
			c2.26,7.71,5.96,20.73,3.04,28.29c-0.12,0.32-0.43,0.83-0.6,1.11c-4.18,6.09-4.48,15.48,1.48,20.68
			c4.53,4.24,11.04,4.94,16.79,5.78c4.35,0.93,8.74,2.14,11.3,5.59c0.11,0.16,0.16,0.25,0.19,0.3c0,0,0,0.01-0.02,0.02
			c-0.03,0.02-0.04,0.03-0.03,0.01c0,0,0.01,0-0.01-0.01c-1.05-0.3-3.35-0.97-4.42-1.29c-0.39,0.39-1.64,1.6-2.54,2.47
			c-1.57-0.4-6.23-1.57-6.23-1.57l-1.45-0.37c-0.31,0.47-0.92,1.65-1.33,2c-0.45,0.46-1.03,0.7-1.64,0.82l-2.86-2.88l-0.49-0.5
			l-0.71-0.09c-5.56-0.71-11.12-1.44-16.68-2.1l-8.3-1.02l-8.28-1.38c-3.21-0.64-6.5-0.98-9.56-1.92
			c-10.08-7.36-18.47-19.03-18.57-31.87c-0.08-5.49,1.59-10.66,4.03-15.59c4.16-8.63,9.18-17.58,17.44-22.87
			c1.19-0.72,2.46-1.35,3.83-1.64c-1.4,0.18-2.74,0.71-4,1.34c-8.86,4.69-14.57,13.62-19.24,22.2c-8.04,13.64-5.89,28.6,3.53,40.92
			c3.14,4.09,6.63,7.85,10.88,10.84c0.73,0.51,1.73,0.73,2.58,0.94c13.49,3,27.45,4.5,41.12,6.18l3.06,3.04l0.67,0.67l0.92-0.07
			c2.01-0.01,4.01-0.91,5.37-2.38l6.02,1.47L320.66,149.67"/>
	</defs>
	<clipPath id="SVGID_00000072278957246298087760000010892962202568971445_">
		<use xlink:href="#SVGID_00000124159097450857699270000013040311876321859763_"  style="overflow:visible;"/>
	</clipPath>
	
		<rect x="236.35" y="63.25" style="clip-path:url(#SVGID_00000072278957246298087760000010892962202568971445_);fill:#FFFFFF;" width="95.02" height="88.12"/>
</g>
<g>
	<defs>
		<path id="SVGID_00000144310480659483070410000006514113380143408037_" d="M255.11,140.43c-4.89,9.55-13.82,15.69-21.36,23.02
			C242.59,159.76,254.17,150.58,255.11,140.43"/>
	</defs>
	<clipPath id="SVGID_00000088849597622779288260000014581637048847498414_">
		<use xlink:href="#SVGID_00000144310480659483070410000006514113380143408037_"  style="overflow:visible;"/>
	</clipPath>
	
		<rect x="232.75" y="139.43" style="clip-path:url(#SVGID_00000088849597622779288260000014581637048847498414_);fill:#FFFFFF;" width="23.36" height="25.02"/>
</g>
<g>
	<defs>
		<path id="SVGID_00000011748624725097672760000015214932741506024348_" d="M293.48,48.25c3.18-1.28,6.98-0.67,10.51-0.61
			c-4.03-1.98-13.44-4.47-14.18,2.31c-0.84,6.91,5.96,9.28,11.57,7.41c-4.41-0.47-9.86-1.75-9.07-7.14
			C292.39,49.33,292.57,48.68,293.48,48.25"/>
	</defs>
	<clipPath id="SVGID_00000011751681937182447500000003311164102727109506_">
		<use xlink:href="#SVGID_00000011748624725097672760000015214932741506024348_"  style="overflow:visible;"/>
	</clipPath>
	
		<rect x="287.97" y="42.16" style="clip-path:url(#SVGID_00000011751681937182447500000003311164102727109506_);fill:#FFFFFF;" width="17.02" height="18.07"/>
</g>
<g>
	<defs>
		<path id="SVGID_00000132771987040014906060000009971045200382049952_" d="M343.32,55.44c-2.65-5.23-8.67-5.77-12.16-1.04
			C333.8,59.66,339.83,60.15,343.32,55.44"/>
	</defs>
	<clipPath id="SVGID_00000148658461533201905460000008944699538235735200_">
		<use xlink:href="#SVGID_00000132771987040014906060000009971045200382049952_"  style="overflow:visible;"/>
	</clipPath>
	
		<rect x="330.16" y="48.66" style="clip-path:url(#SVGID_00000148658461533201905460000008944699538235735200_);fill:#FFFFFF;" width="14.16" height="12.48"/>
</g>
<rect x="-104.76" y="-154.76" class="st38" width="64.88" height="64.88"/>
</svg>
