<?xml version="1.0" encoding="utf-8"?>
<!-- Generator: Adobe Illustrator 26.3.1, SVG Export Plug-In . SVG Version: 6.00 Build 0)  -->
<svg version="1.1" id="Layer_1" xmlns="http://www.w3.org/2000/svg" xmlns:xlink="http://www.w3.org/1999/xlink" x="0px" y="0px"
	 viewBox="0 0 44.77 41.24" style="enable-background:new 0 0 44.77 41.24;" xml:space="preserve">
<style type="text/css">
	.st0{clip-path:url(#SVGID_00000016789459939704248340000013236170721644451470_);}
	.st1{clip-path:url(#SVGID_00000146486598989525104690000014892052356546143647_);fill:#FFFFFF;}
	.st2{clip-path:url(#SVGID_00000082359838199033661090000012349332213244143000_);}
	.st3{clip-path:url(#SVGID_00000129167405435730015170000016786934064157051071_);fill:#FFFFFF;}
	.st4{clip-path:url(#SVGID_00000083769829428695142750000010360324520354819235_);}
	.st5{clip-path:url(#SVGID_00000156587994068618512190000004346054736502198205_);fill:#FFFFFF;}
	.st6{clip-path:url(#SVGID_00000181772954063134683380000016853097068113221561_);fill:#FFFFFF;}
	.st7{clip-path:url(#SVGID_00000105406337169054593490000012180678605231668115_);}
	.st8{clip-path:url(#SVGID_00000020387728957015374250000010177134015646151584_);fill:#FFFFFF;}
	.st9{clip-path:url(#SVGID_00000105427867066763334170000009144432320466529724_);}
	.st10{clip-path:url(#SVGID_00000100376317586649485750000000876662894853365679_);fill:#FFFFFF;}
	.st11{clip-path:url(#SVGID_00000060753524858913403750000014573179257319095724_);}
	.st12{clip-path:url(#SVGID_00000071536894687579831300000018251133674120311710_);fill:#FFFFFF;}
</style>
<g>
	<defs>
		<path id="SVGID_1_" d="M-525.34-1352.01h-16.5c-1.44,0-2.74,0.89-3.28,2.23l9.03,9.05c1.38,1.38,3.62,1.38,5,0l9.03-9.05
			C-522.6-1351.13-523.9-1352.01-525.34-1352.01z M-521.81-1346.69l-7.62,7.63c-2.3,2.3-6.03,2.3-8.34,0l-7.62-7.63v12.41
			c0,1.96,1.58,3.55,3.54,3.55h16.5c1.95,0,3.54-1.59,3.54-3.55V-1346.69z M-525.34-1354.38c3.25,0,5.89,2.65,5.89,5.91v14.18
			c0,3.26-2.64,5.91-5.89,5.91h-16.5c-3.25,0-5.89-2.65-5.89-5.91v-14.18c0-3.26,2.64-5.91,5.89-5.91H-525.34z"/>
	</defs>
	<clipPath id="SVGID_00000119075621944117676870000015409430242329347501_">
		<use xlink:href="#SVGID_1_"  style="overflow:visible;"/>
	</clipPath>
	<g style="clip-path:url(#SVGID_00000119075621944117676870000015409430242329347501_);">
		<defs>
			<rect id="SVGID_00000183247378102552086530000007004247331216991398_" x="-589.74" y="-1370.38" width="1440" height="3453"/>
		</defs>
		<clipPath id="SVGID_00000096050665057063184340000006382506197354399935_">
			<use xlink:href="#SVGID_00000183247378102552086530000007004247331216991398_"  style="overflow:visible;"/>
		</clipPath>
		
			<rect x="-548.74" y="-1355.38" style="clip-path:url(#SVGID_00000096050665057063184340000006382506197354399935_);fill:#FFFFFF;" width="30.29" height="28"/>
	</g>
</g>
<g>
	<defs>
		<path id="SVGID_00000111873698743678430720000000366912797925531540_" d="M-525.34-1352.01h-16.5c-1.44,0-2.74,0.89-3.28,2.23
			l9.03,9.05c1.38,1.38,3.62,1.38,5,0l9.03-9.05C-522.6-1351.13-523.9-1352.01-525.34-1352.01z M-521.81-1346.69l-7.62,7.63
			c-2.3,2.3-6.03,2.3-8.34,0l-7.62-7.63v12.41c0,1.96,1.58,3.55,3.54,3.55h16.5c1.95,0,3.54-1.59,3.54-3.55V-1346.69z
			 M-525.34-1354.38c3.25,0,5.89,2.65,5.89,5.91v14.18c0,3.26-2.64,5.91-5.89,5.91h-16.5c-3.25,0-5.89-2.65-5.89-5.91v-14.18
			c0-3.26,2.64-5.91,5.89-5.91H-525.34z"/>
	</defs>
	<clipPath id="SVGID_00000174578383244476877020000017544933691868892333_">
		<use xlink:href="#SVGID_00000111873698743678430720000000366912797925531540_"  style="overflow:visible;"/>
	</clipPath>
	<g style="clip-path:url(#SVGID_00000174578383244476877020000017544933691868892333_);">
		<defs>
			<rect id="SVGID_00000070804251115437220940000001953778125409137851_" x="-589.74" y="-1370.38" width="1440" height="3453"/>
		</defs>
		<clipPath id="SVGID_00000158708242029482223920000016998107790746872197_">
			<use xlink:href="#SVGID_00000070804251115437220940000001953778125409137851_"  style="overflow:visible;"/>
		</clipPath>
		
			<rect x="-548.74" y="-1355.38" style="clip-path:url(#SVGID_00000158708242029482223920000016998107790746872197_);fill:#FFFFFF;" width="30.29" height="28"/>
	</g>
</g>
<g>
	<defs>
		<path id="SVGID_00000116210109092439294170000011576978598408508092_" d="M-468.2-1352.01h-16.5c-1.44,0-2.74,0.89-3.28,2.23
			l9.03,9.05c1.38,1.38,3.62,1.38,5,0l9.03-9.05C-465.46-1351.13-466.76-1352.01-468.2-1352.01z M-464.66-1346.69l-7.62,7.63
			c-2.3,2.3-6.03,2.3-8.34,0l-7.62-7.63v12.41c0,1.96,1.58,3.55,3.54,3.55h16.5c1.95,0,3.54-1.59,3.54-3.55V-1346.69z
			 M-468.2-1354.38c3.25,0,5.89,2.65,5.89,5.91v14.18c0,3.26-2.64,5.91-5.89,5.91h-16.5c-3.25,0-5.89-2.65-5.89-5.91v-14.18
			c0-3.26,2.64-5.91,5.89-5.91H-468.2z"/>
	</defs>
	<clipPath id="SVGID_00000178892225283932527990000004514658548720830363_">
		<use xlink:href="#SVGID_00000116210109092439294170000011576978598408508092_"  style="overflow:visible;"/>
	</clipPath>
	<g style="clip-path:url(#SVGID_00000178892225283932527990000004514658548720830363_);">
		<defs>
			<rect id="SVGID_00000134232669456918057080000004030488655164200848_" x="-532.6" y="-1370.38" width="1440" height="3453"/>
		</defs>
		<clipPath id="SVGID_00000013904995590206320570000009131832182608315814_">
			<use xlink:href="#SVGID_00000134232669456918057080000004030488655164200848_"  style="overflow:visible;"/>
		</clipPath>
		
			<rect x="-491.6" y="-1355.38" style="clip-path:url(#SVGID_00000013904995590206320570000009131832182608315814_);fill:#FFFFFF;" width="30.29" height="28"/>
	</g>
</g>
<g>
	<defs>
		<path id="SVGID_00000158750316834126068030000000050427050003004805_" d="M35.1,4.23H9.67c-2.23,0-4.22,1.36-5.05,3.44
			l13.91,13.95c2.13,2.13,5.58,2.13,7.71,0L40.15,7.67C39.32,5.6,37.33,4.24,35.1,4.23z M40.55,12.42L28.81,24.19
			c-3.55,3.55-9.3,3.55-12.85,0L4.22,12.42v19.12c0,3.02,2.44,5.46,5.45,5.46H35.1c3.01,0,5.45-2.45,5.45-5.46V12.42z M35.1,0.59
			c5.01,0.01,9.08,4.08,9.08,9.1v21.85c-0.01,5.03-4.07,9.1-9.08,9.1H9.67c-5.01-0.01-9.08-4.08-9.08-9.1V9.69
			c0.01-5.03,4.07-9.1,9.08-9.1H35.1z"/>
	</defs>
	<clipPath id="SVGID_00000073700852378189392830000007351908859066116511_">
		<use xlink:href="#SVGID_00000158750316834126068030000000050427050003004805_"  style="overflow:visible;"/>
	</clipPath>
	
		<rect style="clip-path:url(#SVGID_00000073700852378189392830000007351908859066116511_);fill:#FFFFFF;" width="44.77" height="41.24"/>
</g>
<g>
	<defs>
		<path id="SVGID_00000091013775509405390690000008531843324849981587_" d="M247.47-1661.28c0-0.65,0.52-1.17,1.17-1.17
			c6.45,0.01,11.68,5.23,11.69,11.69c0,0.65-0.52,1.17-1.17,1.17s-1.17-0.52-1.17-1.17c-0.01-5.16-4.19-9.34-9.35-9.35
			C248-1660.11,247.47-1660.63,247.47-1661.28z"/>
	</defs>
	<clipPath id="SVGID_00000013151313400638186600000017442935353858898068_">
		<use xlink:href="#SVGID_00000091013775509405390690000008531843324849981587_"  style="overflow:visible;"/>
	</clipPath>
	<g style="clip-path:url(#SVGID_00000013151313400638186600000017442935353858898068_);">
		<defs>
			<rect id="SVGID_00000074428540169641433050000008179947902789276821_" x="-679.67" y="-1677.45" width="1440" height="3453"/>
		</defs>
		<clipPath id="SVGID_00000093162687155007806540000017554068512689806477_">
			<use xlink:href="#SVGID_00000074428540169641433050000008179947902789276821_"  style="overflow:visible;"/>
		</clipPath>
		
			<rect x="246.47" y="-1663.45" style="clip-path:url(#SVGID_00000093162687155007806540000017554068512689806477_);fill:#FFFFFF;" width="14.85" height="14.85"/>
	</g>
</g>
<g>
	<defs>
		<path id="SVGID_00000139254652217431580580000000113979634447566508_" d="M248.64-1655.43c2.58,0,4.67,2.09,4.67,4.67
			c0,0.65,0.52,1.17,1.17,1.17c0.65,0,1.17-0.52,1.17-1.17c0-3.87-3.14-7.01-7.01-7.01c-0.65,0-1.17,0.52-1.17,1.17
			S248-1655.43,248.64-1655.43z"/>
	</defs>
	<clipPath id="SVGID_00000073715160689951906380000011883693593895589790_">
		<use xlink:href="#SVGID_00000139254652217431580580000000113979634447566508_"  style="overflow:visible;"/>
	</clipPath>
	<g style="clip-path:url(#SVGID_00000073715160689951906380000011883693593895589790_);">
		<defs>
			<rect id="SVGID_00000168110865668285447000000014961611111850266246_" x="-679.67" y="-1677.45" width="1440" height="3453"/>
		</defs>
		<clipPath id="SVGID_00000112609702817139049740000012810558139979100314_">
			<use xlink:href="#SVGID_00000168110865668285447000000014961611111850266246_"  style="overflow:visible;"/>
		</clipPath>
		
			<rect x="246.47" y="-1658.77" style="clip-path:url(#SVGID_00000112609702817139049740000012810558139979100314_);fill:#FFFFFF;" width="10.18" height="10.18"/>
	</g>
</g>
<g>
	<defs>
		<path id="SVGID_00000023240560151248554070000002252190037101920387_" d="M237.3-1659.73l-1.34,1.17
			c-6.59,7.93,13.59,26.99,20.54,20.43l1.06-1.23c0.52-0.48,0.56-1.29,0.1-1.82c0,0-2.8-2.15-2.83-2.19c-0.5-0.5-1.31-0.5-1.81,0
			c-0.01,0.01-0.3,0.25-0.68,0.55l-0.3,0.24l-0.46,0.37c-0.51,0.4-0.95,0.76-0.95,0.76c-0.32,0.26-0.76,0.32-1.14,0.18
			c-4.77-1.77-8.53-5.53-10.31-10.29c-0.16-0.39-0.09-0.84,0.17-1.17c0,0,0.13-0.16,0.32-0.4l0.21-0.26
			c0.56-0.7,1.36-1.71,1.38-1.73c0.5-0.5,0.5-1.31,0-1.81c-0.04-0.04-2.19-2.83-2.19-2.83
			C238.56-1660.23,237.79-1660.21,237.3-1659.73z M240.77-1661.39c0.04,0.04,2.2,2.85,2.2,2.85c1.33,1.4,1.33,3.61-0.01,5l-1.35,1.7
			c1.51,3.68,4.43,6.6,8.1,8.12l1.71-1.36c1.4-1.34,3.6-1.34,5-0.01c0,0,2.81,2.16,2.85,2.2c1.41,1.41,1.41,3.7,0,5.12l-1.06,1.23
			c-9.57,9.16-32.86-14.12-23.84-23.72l1.34-1.17C237.12-1662.8,239.38-1662.78,240.77-1661.39z"/>
	</defs>
	<clipPath id="SVGID_00000142855296939808472600000015214578865509665665_">
		<use xlink:href="#SVGID_00000023240560151248554070000002252190037101920387_"  style="overflow:visible;"/>
	</clipPath>
	<g style="clip-path:url(#SVGID_00000142855296939808472600000015214578865509665665_);">
		<defs>
			<rect id="SVGID_00000119100726872883250900000004912766833343760569_" x="-679.67" y="-1677.45" width="1440" height="3453"/>
		</defs>
		<clipPath id="SVGID_00000158738062060416479890000001085008858535978666_">
			<use xlink:href="#SVGID_00000119100726872883250900000004912766833343760569_"  style="overflow:visible;"/>
		</clipPath>
		
			<rect x="231.33" y="-1663.45" style="clip-path:url(#SVGID_00000158738062060416479890000001085008858535978666_);fill:#FFFFFF;" width="30" height="30"/>
	</g>
</g>
</svg>
