<?xml version="1.0" encoding="utf-8"?>
<!-- Generator: Adobe Illustrator 26.3.1, SVG Export Plug-In . SVG Version: 6.00 Build 0)  -->
<svg version="1.1" id="Layer_1" xmlns="http://www.w3.org/2000/svg" xmlns:xlink="http://www.w3.org/1999/xlink" x="0px" y="0px"
	 viewBox="0 0 44.77 41.24" style="enable-background:new 0 0 44.77 41.24;" xml:space="preserve">
<style type="text/css">
	.st0{clip-path:url(#SVGID_00000072968399815631812650000012448748540608033152_);}
	.st1{clip-path:url(#SVGID_00000052096747307495929970000001511553308448051128_);fill:#FFFFFF;}
	.st2{clip-path:url(#SVGID_00000054984755928234128430000003746463389967569809_);}
	.st3{clip-path:url(#SVGID_00000159440051724708352800000012678645400712670394_);fill:#FFFFFF;}
	.st4{clip-path:url(#SVGID_00000026857100719887734220000015452928150839026104_);}
	.st5{clip-path:url(#SVGID_00000178171065997543055100000003676388757620770705_);fill:#FFFFFF;}
	.st6{clip-path:url(#SVGID_00000164511074991960192260000009407546998728963517_);fill:#FFFFFF;}
</style>
<g>
	<defs>
		<path id="SVGID_1_" d="M-525.34-1352.01h-16.5c-1.44,0-2.74,0.89-3.28,2.23l9.03,9.05c1.38,1.38,3.62,1.38,5,0l9.03-9.05
			C-522.6-1351.13-523.9-1352.01-525.34-1352.01z M-521.81-1346.69l-7.62,7.63c-2.3,2.3-6.03,2.3-8.34,0l-7.62-7.63v12.41
			c0,1.96,1.58,3.55,3.54,3.55h16.5c1.95,0,3.54-1.59,3.54-3.55V-1346.69z M-525.34-1354.38c3.25,0,5.89,2.65,5.89,5.91v14.18
			c0,3.26-2.64,5.91-5.89,5.91h-16.5c-3.25,0-5.89-2.65-5.89-5.91v-14.18c0-3.26,2.64-5.91,5.89-5.91H-525.34z"/>
	</defs>
	<clipPath id="SVGID_00000110462795016637670580000017570394701077109679_">
		<use xlink:href="#SVGID_1_"  style="overflow:visible;"/>
	</clipPath>
	<g style="clip-path:url(#SVGID_00000110462795016637670580000017570394701077109679_);">
		<defs>
			<rect id="SVGID_00000043416517204593875910000003386529505775335856_" x="-589.74" y="-1370.38" width="1440" height="3453"/>
		</defs>
		<clipPath id="SVGID_00000151507531017618177070000009350227950749504172_">
			<use xlink:href="#SVGID_00000043416517204593875910000003386529505775335856_"  style="overflow:visible;"/>
		</clipPath>
		
			<rect x="-548.74" y="-1355.38" style="clip-path:url(#SVGID_00000151507531017618177070000009350227950749504172_);fill:#FFFFFF;" width="30.29" height="28"/>
	</g>
</g>
<g>
	<defs>
		<path id="SVGID_00000178179776500753336450000004721043791489137838_" d="M-525.34-1352.01h-16.5c-1.44,0-2.74,0.89-3.28,2.23
			l9.03,9.05c1.38,1.38,3.62,1.38,5,0l9.03-9.05C-522.6-1351.13-523.9-1352.01-525.34-1352.01z M-521.81-1346.69l-7.62,7.63
			c-2.3,2.3-6.03,2.3-8.34,0l-7.62-7.63v12.41c0,1.96,1.58,3.55,3.54,3.55h16.5c1.95,0,3.54-1.59,3.54-3.55V-1346.69z
			 M-525.34-1354.38c3.25,0,5.89,2.65,5.89,5.91v14.18c0,3.26-2.64,5.91-5.89,5.91h-16.5c-3.25,0-5.89-2.65-5.89-5.91v-14.18
			c0-3.26,2.64-5.91,5.89-5.91H-525.34z"/>
	</defs>
	<clipPath id="SVGID_00000156557522331520371430000008550811408443268014_">
		<use xlink:href="#SVGID_00000178179776500753336450000004721043791489137838_"  style="overflow:visible;"/>
	</clipPath>
	<g style="clip-path:url(#SVGID_00000156557522331520371430000008550811408443268014_);">
		<defs>
			<rect id="SVGID_00000176757267856752986240000012366871318760408450_" x="-589.74" y="-1370.38" width="1440" height="3453"/>
		</defs>
		<clipPath id="SVGID_00000129928032725321174510000016786017994763485575_">
			<use xlink:href="#SVGID_00000176757267856752986240000012366871318760408450_"  style="overflow:visible;"/>
		</clipPath>
		
			<rect x="-548.74" y="-1355.38" style="clip-path:url(#SVGID_00000129928032725321174510000016786017994763485575_);fill:#FFFFFF;" width="30.29" height="28"/>
	</g>
</g>
<g>
	<defs>
		<path id="SVGID_00000173858740763477919310000000012573429165587100_" d="M-468.2-1352.01h-16.5c-1.44,0-2.74,0.89-3.28,2.23
			l9.03,9.05c1.38,1.38,3.62,1.38,5,0l9.03-9.05C-465.46-1351.13-466.76-1352.01-468.2-1352.01z M-464.66-1346.69l-7.62,7.63
			c-2.3,2.3-6.03,2.3-8.34,0l-7.62-7.63v12.41c0,1.96,1.58,3.55,3.54,3.55h16.5c1.95,0,3.54-1.59,3.54-3.55V-1346.69z
			 M-468.2-1354.38c3.25,0,5.89,2.65,5.89,5.91v14.18c0,3.26-2.64,5.91-5.89,5.91h-16.5c-3.25,0-5.89-2.65-5.89-5.91v-14.18
			c0-3.26,2.64-5.91,5.89-5.91H-468.2z"/>
	</defs>
	<clipPath id="SVGID_00000158007332750497443800000003306658800684216454_">
		<use xlink:href="#SVGID_00000173858740763477919310000000012573429165587100_"  style="overflow:visible;"/>
	</clipPath>
	<g style="clip-path:url(#SVGID_00000158007332750497443800000003306658800684216454_);">
		<defs>
			<rect id="SVGID_00000008129064144579477310000004285430956371693227_" x="-532.6" y="-1370.38" width="1440" height="3453"/>
		</defs>
		<clipPath id="SVGID_00000114064634165709742250000004266750965858894753_">
			<use xlink:href="#SVGID_00000008129064144579477310000004285430956371693227_"  style="overflow:visible;"/>
		</clipPath>
		
			<rect x="-491.6" y="-1355.38" style="clip-path:url(#SVGID_00000114064634165709742250000004266750965858894753_);fill:#FFFFFF;" width="30.29" height="28"/>
	</g>
</g>
<g>
	<defs>
		<path id="SVGID_00000013164434645896012940000013506256057530235557_" d="M35.1,4.23H9.67c-2.23,0-4.22,1.36-5.05,3.44
			l13.91,13.95c2.13,2.13,5.58,2.13,7.71,0L40.15,7.67C39.32,5.6,37.33,4.24,35.1,4.23z M40.55,12.42L28.81,24.19
			c-3.55,3.55-9.3,3.55-12.85,0L4.22,12.42v19.12c0,3.02,2.44,5.46,5.45,5.46H35.1c3.01,0,5.45-2.45,5.45-5.46V12.42z M35.1,0.59
			c5.01,0.01,9.08,4.08,9.08,9.1v21.85c-0.01,5.03-4.07,9.1-9.08,9.1H9.67c-5.01-0.01-9.08-4.08-9.08-9.1V9.69
			c0.01-5.03,4.07-9.1,9.08-9.1H35.1z"/>
	</defs>
	<clipPath id="SVGID_00000109025361851264544670000011464552689486807194_">
		<use xlink:href="#SVGID_00000013164434645896012940000013506256057530235557_"  style="overflow:visible;"/>
	</clipPath>
	
		<rect style="clip-path:url(#SVGID_00000109025361851264544670000011464552689486807194_);fill:#FFFFFF;" width="44.77" height="41.24"/>
</g>
</svg>
