<?xml version="1.0" encoding="utf-8"?>
<!-- Generator: Adobe Illustrator 26.3.1, SVG Export Plug-In . SVG Version: 6.00 Build 0)  -->
<svg version="1.1" id="Layer_1" xmlns="http://www.w3.org/2000/svg" xmlns:xlink="http://www.w3.org/1999/xlink" x="0px" y="0px"
	 viewBox="0 0 60.99 61" style="enable-background:new 0 0 60.99 61;" xml:space="preserve">
<style type="text/css">
	.st0{clip-path:url(#SVGID_00000084515377728140046050000015226048277850278813_);fill:#FFFFFF;}
	.st1{clip-path:url(#SVGID_00000040560722451894365760000015965977249928557727_);fill:#FFFFFF;}
	.st2{clip-path:url(#SVGID_00000160172265276605033680000017911233442173428883_);fill:#FFFFFF;}
</style>
<g>
	<defs>
		<path id="SVGID_1_" d="M33,2.55C33,1.14,34.14,0,35.54,0C49.6,0.02,60.98,11.41,61,25.46c0,1.41-1.14,2.55-2.55,2.55
			s-2.55-1.14-2.55-2.55C55.9,14.22,46.78,5.11,35.54,5.1C34.14,5.1,33,3.96,33,2.55z"/>
	</defs>
	<clipPath id="SVGID_00000076593039393869803360000010643917965239721359_">
		<use xlink:href="#SVGID_1_"  style="overflow:visible;"/>
	</clipPath>
	
		<rect x="32" y="-1" style="clip-path:url(#SVGID_00000076593039393869803360000010643917965239721359_);fill:#FFFFFF;" width="30" height="30"/>
</g>
<g>
	<defs>
		<path id="SVGID_00000169543028375756410250000002177838381360007052_" d="M35.54,15.28c5.62,0,10.18,4.56,10.18,10.18
			c0,1.41,1.14,2.55,2.55,2.55s2.55-1.14,2.55-2.55c-0.01-8.43-6.84-15.27-15.27-15.28c-1.41,0-2.55,1.14-2.55,2.55
			C33,14.14,34.14,15.28,35.54,15.28z"/>
	</defs>
	<clipPath id="SVGID_00000075159891495810126050000005325287569139080836_">
		<use xlink:href="#SVGID_00000169543028375756410250000002177838381360007052_"  style="overflow:visible;"/>
	</clipPath>
	
		<rect x="32" y="9.19" style="clip-path:url(#SVGID_00000075159891495810126050000005325287569139080836_);fill:#FFFFFF;" width="19.82" height="19.82"/>
</g>
<g>
	<defs>
		<path id="SVGID_00000050633530828455897720000017504885320584361116_" d="M10.84,5.91L7.91,8.46
			c-14.36,17.27,29.61,58.8,44.74,44.5l2.32-2.67c1.13-1.05,1.23-2.8,0.22-3.96c0,0-6.09-4.69-6.17-4.77
			c-1.09-1.08-2.85-1.08-3.94,0c-0.06,0.06-4.13,3.3-5.03,4.02l-0.13,0.1c-0.03,0.02-0.05,0.04-0.05,0.04
			c-0.7,0.56-1.65,0.71-2.49,0.39C27,42.24,18.8,34.06,14.92,23.68c-0.35-0.85-0.21-1.83,0.37-2.55c0,0,0.01-0.02,0.04-0.05
			l0.1-0.13c0.54-0.68,2.5-3.13,3.47-4.34l0.22-0.27c0.2-0.25,0.32-0.4,0.33-0.41c1.08-1.09,1.08-2.85,0-3.94
			c-0.04-0.04-1.12-1.44-2.24-2.9l-0.34-0.44c-1.12-1.46-2.18-2.84-2.18-2.84C13.58,4.82,11.89,4.87,10.84,5.91z M18.38,2.31
			c0.08,0.08,4.8,6.21,4.8,6.21c2.91,3.05,2.9,7.86-0.02,10.9l-2.95,3.71c3.3,8.01,9.65,14.37,17.65,17.68l3.73-2.97
			c3.05-2.92,7.84-2.92,10.9-0.02c0,0,1.39,1.07,2.85,2.2l0.44,0.34c1.47,1.13,2.87,2.22,2.91,2.26c3.07,3.08,3.07,8.07,0,11.15
			l-2.32,2.67C35.52,76.4-15.21,25.67,4.44,4.75l2.93-2.55C10.45-0.78,15.36-0.73,18.38,2.31z"/>
	</defs>
	<clipPath id="SVGID_00000005250044381861458830000003417929062460394138_">
		<use xlink:href="#SVGID_00000050633530828455897720000017504885320584361116_"  style="overflow:visible;"/>
	</clipPath>
	
		<rect x="-1" y="-1" style="clip-path:url(#SVGID_00000005250044381861458830000003417929062460394138_);fill:#FFFFFF;" width="63" height="63"/>
</g>
</svg>
